# xmcd
#
# Track frame offsets:
#	150
#	11070
#	22546
#	34868
#	46202
#	57471
#	68742
#	80985
#	91395
#	107976
#	118050
#	130984
#	141559
#	178676
#	186935
#	197039
#	207488
#	217497
#	230352
#	241512
#	254353
#
# Disc length: 3538 seconds
#
# Revision: 1
# Processed by: cddbd v1.5.2PL0 Copyright (c) Steve Scherf et al.
# Submitted via: audiograbber 1.83.01
#
DISCID=3d0dd015
DTITLE=Bob Wills and His Texas Palyboys - Faded Love 1947 - 1973 [CD08)
DYEAR=2005
DGENRE=Western Swing
TTITLE0=A Maiden's Prayer
TTITLE1=Boot Heel Drag
TTITLE2=Don't Let The Deal Go Down
TTITLE3=Blues In A
TTITLE4=Big Beaver
TTITLE5=Yearning (Just For You)
TTITLE6=My Mary
TTITLE7=Rosetta
TTITLE8=Sittin' On Top Of The World
TTITLE9=My Confession
TTITLE10=Snap Your Fingers
TTITLE11=Will You Miss Me When I'm Gone
TTITLE12=St Louis Blues
TTITLE13=South
TTITLE14=Heart Strings
TTITLE15=Sooner Or Later (You'll Fall)
TTITLE16=Buffalo Twist
TTITLE17=All Night Long
TTITLE18=You Can't Break A Heart
TTITLE19=If He's Movin' In
TTITLE20=Let's Get It Over And Done With
EXTD=
EXTT0=
EXTT1=
EXTT2=
EXTT3=
EXTT4=
EXTT5=
EXTT6=
EXTT7=
EXTT8=
EXTT9=
EXTT10=
EXTT11=
EXTT12=
EXTT13=
EXTT14=
EXTT15=
EXTT16=
EXTT17=
EXTT18=
EXTT19=
EXTT20=
PLAYORDER=
